{"title":"MythBusters S08E03 hdtv.XviD-XAX","uid":5493283,"size":437608726,"categoryP":"video","categoryS":"tv_shows","magnet":"?xt=urn:btih:4d05fea6ef5446305f8f01dc90ee2b9aae3c461f&amp;dn=MythBusters+S08E03+hdtv.XviD-XAX&amp;tr=udp%3A%2F%2Ftracker.openbittorrent.com%3A80&amp;tr=udp%3A%2F%2Fopen.demonii.com%3A1337&amp;tr=udp%3A%2F%2Ftracker.coppersurfer.tk%3A6969&amp;tr=udp%3A%2F%2Fexodus.desync.com%3A6969","seeders":0,"leechers":0,"uploader":"jokeomexz","files":2,"time":1271117788,"description":"General\n\nFormat                           : Matroska\nFile size                        : 417 MiB\nDuration                         : 43mn 32s\nOverall bit rate                 : 1 340 Kbps\nEncoded date                     : UTC 2010-04-12 21:58:47\nWriting application              : mkvmerge v3.2.0 ('Beginnings') built on Feb 12 2010 16:46:17\nWriting library                  : libebml v0.7.9 + libmatroska v0.8.1\n========================\nVideo\n\nID                               : 1\nFormat                           : MPEG-4 Visual\nFormat profile                   : Advanced Simple@L5\nFormat settings, BVOP            : No\nFormat settings, QPel            : No\nFormat settings, GMC             : No warppoints\nFormat settings, Matrix          : Default (MPEG)\nCodec ID                         : XVID\nCodec ID/Hint                    : XviD\nDuration                         : 43mn 32s\nBit rate                         : 1 186 Kbps\nWidth                            : 624 pixels\nHeight                           : 352 pixels\nDisplay aspect ratio             : 16:9\nFrame rate                       : 29.970 fps\nResolution                       : 8 bits\nColorimetry                      : 4:2:0\nScan type                        : Progressive\nBits/(Pixel*Frame)               : 0.180\nStream size                      : 369 MiB (88%)\nWriting library                  : XviD 1.1.2 (UTC 2006-11-01)\n========================\nAudio\n\nID                               : 2\nFormat                           : MPEG Audio\nFormat version                   : Version 1\nFormat profile                   : Layer 3\nCodec ID                         : A_MPEG/L3\nCodec ID/Hint                    : MP3\nDuration                         : 43mn 32s\nBit rate mode                    : Constant\nBit rate                         : 128 Kbps\nChannel(s)                       : 2 channels\nSampling rate                    : 44.1 KHz\nStream size                      : 39.9 MiB (10%)\nWriting library                  : LAMELAME_MAJOR_VERSI","torrent":{"xt":"urn:btih:4d05fea6ef5446305f8f01dc90ee2b9aae3c461f","amp;dn":"MythBusters+S08E03+hdtv.XviD-XAX","amp;tr":["udp%3A%2F%2Ftracker.openbittorrent.com%3A80","udp%3A%2F%2Fopen.demonii.com%3A1337","udp%3A%2F%2Ftracker.coppersurfer.tk%3A6969","udp%3A%2F%2Fexodus.desync.com%3A6969"],"infoHash":"4d05fea6ef5446305f8f01dc90ee2b9aae3c461f","infoHashBuffer":{"type":"Buffer","data":[77,5,254,166,239,84,70,48,95,143,1,220,144,238,43,154,174,60,70,31]},"announce":[],"urlList":[]}}